<mxfile host="app.diagrams.net" modified="2024-01-31T01:43:24.171Z" agent="Mozilla/5.0 (Windows NT 10.0; Win64; x64) AppleWebKit/537.36 (KHTML, like Gecko) Chrome/121.0.0.0 Safari/537.36" version="23.0.2" etag="ETXnNQVSBw6IE_U5xpCK" type="github">
  <diagram name="第 1 页" id="1os6qECNL6qaqZyiVjlc">
    <mxGraphModel>
      <root>
        <mxCell id="0" />
        <mxCell id="1" parent="0" />
      </root>
    </mxGraphModel>
  </diagram>
</mxfile>
